inDegrees=no
num_controls=7
num_derivatives=13
num_iterations=187
num_multipliers=7
num_parameters=0
num_slacks=7
num_states=26
objective=5.951233
objective_accelerations=0.558284
objective_balance=0.053054
objective_effort=0.501658
objective_height=4.744242
objective_ligament=0.093996
solver_duration=1919.298282
status=Solve_Succeeded
success=true
DataType=double
version=3
OpenSimVersion=4.4-2022-07-23-0e9fedc
endheader
time	/jointset/ground_pelvis/pelvis_tilt/value	/jointset/ground_pelvis/pelvis_tx/value	/jointset/ground_pelvis/pelvis_ty/value	/jointset/hip_l/hip_flexion_l/value	/jointset/hip_l/hip_adduction_l/value	/jointset/hip_l/hip_rotation_l/value	/jointset/back/lumbar_extension/value	/jointset/patellofemoral_l/patellar_flexion_l/value	/jointset/knee_l/knee_flexion_l/value	/jointset/knee_l/knee_adduction_l/value	/jointset/knee_l/knee_rotation_l/value	/jointset/ankle_l/ankle_angle_l/value	/jointset/subtalar_l/subtalar_angle_l/value	/jointset/ground_pelvis/pelvis_tilt/speed	/jointset/ground_pelvis/pelvis_tx/speed	/jointset/ground_pelvis/pelvis_ty/speed	/jointset/hip_l/hip_flexion_l/speed	/jointset/hip_l/hip_adduction_l/speed	/jointset/hip_l/hip_rotation_l/speed	/jointset/back/lumbar_extension/speed	/jointset/patellofemoral_l/patellar_flexion_l/speed	/jointset/knee_l/knee_flexion_l/speed	/jointset/knee_l/knee_adduction_l/speed	/jointset/knee_l/knee_rotation_l/speed	/jointset/ankle_l/ankle_angle_l/speed	/jointset/subtalar_l/subtalar_angle_l/speed	/forceset/tau_hip_flexion_l	/forceset/tau_hip_adduction_l	/forceset/tau_hip_rotation_l	/forceset/tau_knee_flexion_l	/forceset/tau_ankle_angle_l	/forceset/tau_subtalar_angle_l	/forceset/tau_lumbar_extension	lambda_cid13_p0	lambda_cid13_p1	lambda_cid13_p2	lambda_cid13_p3	lambda_cid13_p4	lambda_cid13_p5	lambda_cid14_p0	/jointset/ground_pelvis/pelvis_tilt/accel	/jointset/ground_pelvis/pelvis_tx/accel	/jointset/ground_pelvis/pelvis_ty/accel	/jointset/hip_l/hip_flexion_l/accel	/jointset/hip_l/hip_adduction_l/accel	/jointset/hip_l/hip_rotation_l/accel	/jointset/back/lumbar_extension/accel	/jointset/patellofemoral_l/patellar_flexion_l/accel	/jointset/knee_l/knee_flexion_l/accel	/jointset/knee_l/knee_adduction_l/accel	/jointset/knee_l/knee_rotation_l/accel	/jointset/ankle_l/ankle_angle_l/accel	/jointset/subtalar_l/subtalar_angle_l/accel	gamma_cid13_p0	gamma_cid13_p1	gamma_cid13_p2	gamma_cid13_p3	gamma_cid13_p4	gamma_cid13_p5	gamma_cid14_p0
1	-0.1373327239092926	-0.06139842300313138	0.6809341792775675	1.355237940037801	-0.3272049488513016	0.06649424798748149	-0.9599310385387723	1.386707946879421	1.386707946879512	-0.06351520932049848	-0.174532467474221	0.2655668452864747	0.06017731594363094	0.103483091691507	0.02504470402164061	0.07070452463754226	-0.2988063654958809	-0.00683194711566315	-0.06478159042482208	3.175633225876783e-05	-0.1626250763051711	-0.1626250763051672	-0.002620361672424416	-7.567342155889071e-06	0.02377095935519886	0.002433513342152155	-0.3934250622446864	0.01671691820555924	0.0002570780729574924	-0.3546440746719151	0.02926454688243215	0.02884322225545072	0.4351735215106066	-41.65372874810582	-4.622497997189056	-0.4150893510646977	14.54051043610448	-800.2253405777089	-68.54415744595001	-0.04179151230001425	0.9506734424487567	-0.007948642604688964	1.546818326011866	-5.087293124320406	-0.1232276884489662	-1.65228030697363	-0.02622312414531953	-4.955917368000475	-4.95591736800051	-0.3395318661660112	-0.01891077919976977	-1.168320334318486	-0.6388739991366267	-9.87161082360123e-09	1.341071502115697e-08	6.186671751675553e-08	5.541464971192581e-09	-2.432976688867169e-08	1.207360869047538e-07	-1.698926823393778e-08
1.01	-0.136250830098065	-0.06114829556098014	0.681718342889448	1.35199645208487	-0.3272786432022666	0.0657631064023009	-0.9599310885968813	1.38483427473079	1.384834274730798	-0.06355653482071238	-0.1745324877688983	0.2657462790749717	0.06017081034858356	0.1128889052743387	0.02498983375836222	0.08611652859484928	-0.34946683661808	-0.007897920944490051	-0.08143927552276853	2.20046357096993e-06	-0.2121019761520873	-0.2121019761520919	-0.005643157457798918	2.5696877615058e-06	0.01210647182807008	-0.003726890251053265	-0.3928036913646828	0.01689736685651069	0.000187141495872376	-0.3543748282846217	0.02913330658174293	0.02901068959194692	0.4350232414627423	-41.66336608947194	-4.709113072828269	-0.3834941538288015	14.36121409796275	-799.9780981322684	-68.63853327402242	-0.04182445637166624	0.9345183986825851	-0.002896020176496292	1.536634802116638	-5.051768805643635	-0.09693857409000417	-1.671413205649753	0.01529574217722666	-4.942465059175811	-4.942465059177138	-0.283428094026608	0.0108568871407978	-1.166912599845388	-0.6034735077492778	-1.748110817546316e-08	5.558068488632195e-09	8.939262871138389e-08	1.389313886464165e-08	-3.121506877953834e-08	1.400308107416875e-07	-2.315528285542126e-08
1.02	-0.1350750815345056	-0.0608984447818593	0.6826562752152072	1.348249090480848	-0.3273627285603147	0.06486560784725369	-0.9599301121881828	1.382466055830462	1.382466055830364	-0.06362804321063238	-0.1745324305047118	0.2658087880606108	0.06010293072393635	0.1222540421564603	0.02498937141555873	0.1014582674132515	-0.3999810957192397	-0.008910148532934526	-0.09805298439849894	0.0002373470111781068	-0.2615344266445453	-0.2615344266445584	-0.008656939615314626	7.944439810559879e-06	0.0003859987835310857	-0.009841292577728583	-0.3921823204845903	0.017077815507468	0.0001172049189330409	-0.3541055818973176	0.02900206628104009	0.02917815692844267	0.4348729614149596	-41.68451103014858	-4.792137092526744	-0.3542719321703868	14.23901730159699	-799.8774394698123	-68.70832901758645	-0.04185658555101578	0.9425381023066736	0.002932941490306169	1.532765298230912	-5.05805072011251	-0.112478440372487	-1.643485062530422	0.02671735911328746	-4.947027497108862	-4.947027497108847	-0.3377291405942575	-0.0198632347734414	-1.179517437800504	-0.6296737458305997	-2.454644209302275e-08	-4.613132163444898e-09	1.159815153732925e-07	1.993316297358681e-08	-3.771752899339325e-08	1.573520352484647e-07	-2.948873681440289e-08
1.03	-0.1338063469712227	-0.06064807946302315	0.6837472270110805	1.343997600537356	-0.3274566415110287	0.06380228312291493	-0.9599234996471732	1.379603868755749	1.379603868755755	-0.0637296547510225	-0.1745323017837917	0.2657541509798364	0.05997432974844733	0.1314404329044972	0.02511776278696706	0.1167159825694835	-0.450265856377136	-0.009863290676511731	-0.1145995245715252	0.001325207783925598	-0.3108830244548185	-0.3108830244548071	-0.01166470175064601	1.589285244504407e-05	-0.01128917261147451	-0.01585527744111234	-0.3929939372653089	0.01738603980247492	9.927412676255935e-06	-0.3533298783476129	0.02881036124191794	0.02946138594671616	0.4364526608164232	-41.74985057006819	-4.932125828156847	-0.299488109469203	13.64329191257619	-800.612775699859	-68.78243523941732	-0.0418944713165493	0.8988212140653777	0.0229080266849393	1.519849362926854	-5.006037270277348	-0.08537165957746462	-1.658402192589158	0.185827420778196	-4.925774143317393	-4.925774143313798	-0.2822189426780683	0.01087097429018348	-1.157883072543753	-0.5837312852306681	-3.160622332247721e-08	-1.480799153102764e-08	1.425608405603774e-07	2.594959881942477e-08	-4.421608265952355e-08	1.74653122006975e-07	-3.582389933805288e-08
1.04	-0.1324473221698526	-0.06039540707212932	0.6849902709062381	1.339244793280975	-0.3275598137948216	0.06257386025727024	-0.959898807101356	1.376248796058867	1.376248796058961	-0.06386132775129653	-0.1745321441597401	0.2655834889686738	0.0597862948385964	0.140312089773068	0.02545078582709223	0.131876687270064	-0.5002445583009952	-0.01076201514917509	-0.131072612660567	0.003853347933579242	-0.360111551078322	-0.360111551078287	-0.01466923159299919	1.372506541031858e-05	-0.02281898729420528	-0.02172807945003139	-0.3938055540459542	0.01769426409749208	-9.73500935201412e-05	-0.3525541747979008	0.02861865620278592	0.02974461496499806	0.4380323602179508	-41.82691475528569	-5.068449304632606	-0.2471304404443739	13.10324510148962	-801.498518842347	-68.83242549018954	-0.04193046629648511	0.8795913264134388	0.04385927523369005	1.513363207100605	-4.996838973305107	-0.1015949061897488	-1.628794645733526	0.3147732344939349	-4.923013259754943	-4.923013259755061	-0.3370826819986309	-0.02188647470734256	-1.15044609534552	-0.6014371749376911	-3.573866020005542e-08	-2.677936574527781e-08	1.671342625679671e-07	2.627374521648385e-08	-4.957807859723014e-08	1.822955002221522e-07	-4.114397580404212e-08
1.05	-0.1310010350905076	-0.06013843327080075	0.686384355707942	1.333993855501044	-0.3276716647574646	0.06118116903065828	-0.9598422141347022	1.372402136069796	1.372402136069891	-0.06402305803221026	-0.1745320559222888	0.2652981118332021	0.05954023351199485	0.1489026567644787	0.02597282499631319	0.1469157970453414	-0.5498770753891696	-0.01159382386200162	-0.1474477001363312	0.007649864952504583	-0.4091908005930428	-0.4091908005930133	-0.01767323635008271	4.539385771474246e-06	-0.03424633544047846	-0.0274588339081306	-0.393754841390449	0.01797782444273159	-0.000232506882833622	-0.3516365007348161	0.02865078854743061	0.0300859125242367	0.4387579404868925	-41.78244111500426	-5.257940522330862	-0.1786795973451082	12.57188006588532	-801.5852025716738	-68.95091644818262	-0.04198277221647698	0.842385443580247	0.06070910692322271	1.495502424214908	-4.936574793999507	-0.07183906362233486	-1.639214273620707	0.4397838681328358	-4.895924536002659	-4.895924536003452	-0.2815464759835987	0.00970098799861791	-1.137366828877454	-0.5551079437055438	-3.977961756663752e-08	-3.880625604848633e-08	1.916450001011976e-07	2.642000756826861e-08	-5.49045571059235e-08	1.896360437953503e-07	-4.643233083072948e-08
1.06	-0.129470123129633	-0.05987537250394872	0.687928095119694	1.328248569206762	-0.3277914068491925	0.05962525723426234	-0.9597421174113244	1.368065574837843	1.368065574837926	-0.06421472578137936	-0.1745320324211028	0.2648987636853459	0.05923762196832006	0.1572370660789149	0.02666817893178294	0.1618076092796083	-0.5991142611743741	-0.01234024096655441	-0.1637167266170078	0.01255409927307534	-0.4580917996546418	-0.4580917996546177	-0.02065672524398458	7.778097631144413e-07	-0.04561318977112053	-0.03303812286460962	-0.3937041287348803	0.01826138478796833	-0.0003676636721079584	-0.3507188266717261	0.02868292089206365	0.03042721008346614	0.4394835207558908	-41.74982012218441	-5.443727280245111	-0.1126803447937878	12.09411169448782	-801.8247722071744	-69.04683726118053	-0.04203243890083088	0.8283597910185118	0.07852222848345819	1.483903698898497	-4.917772712711122	-0.0845165845350152	-1.607582446716026	0.5363166948228829	-4.887363169130593	-4.887363169130659	-0.3329795093623079	-0.02080165398126917	-1.138347332219286	-0.5711440746136647	-4.46973369550388e-08	-5.154757149110269e-08	2.132221737107456e-07	2.814755593379939e-08	-6.054188853737555e-08	1.955978528294042e-07	-5.144509131414116e-08
1.07	-0.1278570451767523	-0.0596044620594205	0.6896199689891614	1.322012870225973	-0.3279181703512086	0.05790728586430927	-0.9595875210387148	1.363240983831204	1.363240983831192	-0.06443618532675997	-0.1745320277791566	0.2643860595765684	0.05888000767814836	0.1653446972141928	0.02754577276107672	0.1765378830181789	-0.6479604105085401	-0.01299571243506793	-0.1798553243992548	0.0185436315683848	-0.5067883658663273	-0.5067883658663258	-0.02363143003034934	6.253096973878569e-07	-0.056916341119442	-0.03845487643373281	-0.3933999052868843	0.01857286010934556	-0.0005315314909926699	-0.349551036120345	0.0288334287232144	0.03083712004986101	0.4400122431503352	-41.64993780249372	-5.67930477148998	-0.02935900596003626	11.51163163170448	-801.6987035305262	-69.18808026916297	-0.04209335596562627	0.79688645310281	0.09716339571532553	1.463183652877505	-4.858273399276582	-0.05357326289466442	-1.613712397317562	0.6570399446514924	-4.855086616841171	-4.855086616844578	-0.2791844102581331	0.01050083237867073	-1.124610102385842	-0.5224792713782483	-4.966169262119643e-08	-6.43268882709216e-08	2.34643306686055e-07	2.995921525750816e-08	-6.619575469876156e-08	2.014863249198866e-07	-5.644319251333606e-08
1.08	-0.1261639065768584	-0.05932381858948698	0.6914582644843229	1.315290662280689	-0.3280509907348967	0.05602858572586691	-0.9593676756535982	1.357930570508517	1.357930570508442	-0.06468728560939264	-0.1745320000861106	0.2637606617410583	0.05846911819762181	0.1732491954822803	0.02861478401284265	0.1910919344183798	-0.6964160540630103	-0.01355161729898357	-0.1958624803150429	0.02560390177436216	-0.5552562628641575	-0.5552562628641784	-0.02658487269610105	5.388025548055923e-06	-0.06815193511765139	-0.04369316093551852	-0.3930956818390866	0.01888433543069539	-0.000695399309803237	-0.3483832455689719	0.02898393655439567	0.03124703001623179	0.4405409655446048	-41.56211704327607	-5.91108311060756	0.05142925617240413	10.98088803313403	-801.728909463297	-69.30842235488943	-0.04215053828982873	0.7877332175804662	0.116805712977895	1.448659231224543	-4.839671556771911	-0.06460326361543935	-1.58129407342424	0.7504642769564306	-4.841629326359569	-4.841629326359583	-0.3287270852396996	-0.01981861079797718	-1.124835862196859	-0.5354502611461568	-5.385678400865025e-08	-7.750670606706805e-08	2.51985441773625e-07	3.057900004497264e-08	-7.083764084889273e-08	2.028519238769454e-07	-6.065421207262663e-08
